<?xml version="1.0" standalone="no"?>
<!DOCTYPE svg PUBLIC "-//W3C//DTD SVG 20010904//EN"
 "http://www.w3.org/TR/2001/REC-SVG-20010904/DTD/svg10.dtd">
<svg version="1.0" xmlns="http://www.w3.org/2000/svg"
 width="320.000000pt" height="320.000000pt" viewBox="0 0 320.000000 320.000000"
 preserveAspectRatio="xMidYMid meet">
<metadata>
Created by potrace 1.11, written by Peter Selinger 2001-2013
</metadata>
<g transform="translate(0.000000,320.000000) scale(0.100000,-0.100000)"
fill="#000000" stroke="none">
<path d="M279 3177 c-121 -41 -204 -119 -251 -234 l-23 -58 0 -1280 0 -1280
23 -58 c48 -118 133 -196 262 -240 l65 -22 1195 -3 c776 -2 1222 1 1273 7 44
6 102 22 134 37 69 33 161 123 192 189 52 110 52 106 49 1405 l-3 1205 -22 65
c-43 127 -124 215 -240 262 l-58 23 -1265 2 -1265 3 -66 -23z m1556 -521 c78
-19 269 -87 282 -100 3 -3 -118 -289 -126 -299 -4 -4 -52 10 -107 32 -227 89
-406 87 -473 -7 -32 -46 -46 -127 -32 -180 23 -81 73 -124 295 -246 177 -98
248 -147 313 -213 153 -156 184 -414 76 -627 -54 -107 -189 -208 -333 -249
-198 -57 -475 -40 -687 43 l-83 31 0 186 c0 172 1 185 18 180 9 -3 67 -26 128
-51 199 -82 377 -110 494 -77 125 36 178 192 101 299 -45 61 -104 103 -266
192 -252 138 -334 208 -400 344 -87 177 -66 410 51 565 138 184 434 254 749
177z"/>
</g>
</svg>
